<mxfile host="app.diagrams.net" modified="2024-03-14T12:26:02.869Z" agent="Mozilla/5.0 (Windows NT 10.0; Win64; x64) AppleWebKit/537.36 (KHTML, like Gecko) Chrome/121.0.0.0 Safari/537.36 OPR/107.0.0.0" version="24.0.6" etag="7_dtfD6vrsjV5TD4nm-q" type="github">
  <diagram name="Page-1" id="TEzEPX-1kKt580kr2zPY">
    <mxGraphModel>
      <root>
        <mxCell id="0" />
        <mxCell id="1" parent="0" />
      </root>
    </mxGraphModel>
  </diagram>
</mxfile>
